# xmcd
#
# Track frame offsets:
#	182
#	9455
#	19945
#	31142
#	41427
#	54275
#	65980
#	77962
#	90707
#	99302
#	108895
#	118857
#	131890
#	142992
#	153685
#	164425
#
# Disc length: 2312 seconds
#
# Revision: 0
# Processed by: cddbd v1.5.2PL0 Copyright (c) Steve Scherf et al.
# Submitted via: audiograbber 1.83.01
#
DISCID=d4090610
DTITLE=The Golden Gate Quartett - Selection Of The Golden Gate Quartett [CD 1 /
DTITLE=2)
DYEAR=2000
DGENRE=Soul
TTITLE0=Ol´ Man Mose
TTITLE1=My Walking Stick
TTITLE2=Motherless Child
TTITLE3=Dipsy Doodle
TTITLE4=Stormy Weather
TTITLE5=Golden Gate Gospel Train
TTITLE6=Job
TTITLE7=Beside Of Neighbor
TTITLE8=Travelin´ Shoes
TTITLE9=Lead Me On And On
TTITLE10=Sampson
TTITLE11=I Heard Zion Moan
TTITLE12=What A Time
TTITLE13=Go Where I Send Thee
TTITLE14=Gabriel Blows His Horn
TTITLE15=Rock My Soul
EXTD=
EXTT0=
EXTT1=
EXTT2=
EXTT3=
EXTT4=
EXTT5=
EXTT6=
EXTT7=
EXTT8=
EXTT9=
EXTT10=
EXTT11=
EXTT12=
EXTT13=
EXTT14=
EXTT15=
PLAYORDER=
